<?xml version="1.0" encoding="UTF-8"?>
<svg xmlns="http://www.w3.org/2000/svg" version="1.1" viewBox="0 0 120 36">
  <defs>
    <style>
      .cls-1 {
        fill: #2b3137;
      }
    </style>
  </defs>
  <!-- Generator: Adobe Illustrator 28.7.1, SVG Export Plug-In . SVG Version: 1.2.0 Build 142)  -->
  <g>
    <g id="_レイヤー_1" data-name="レイヤー_1">
      <path class="cls-1" d="M19,28.3v-12.3c0-.6,0-3.2,0-5.2h0l-5.9,17.5h-2.8L4.5,10.8h0c0,1.9,0,4.5,0,5.2v12.3H1.8V7.5h4l5.9,17.6h0l5.9-17.6h4v20.8h-2.7Z"/>
      <path class="cls-1" d="M36.3,13.1h2.8c-1.8,5-3.5,9.9-5.4,14.9-2.4,6.1-2.7,6.5-5.9,6.5s-.7-.1-1.1-.2v-2.3c.3.1.8.3,1.5.3,1.3,0,1.5-.4,2.7-3.5l-5.6-15.6h2.9l4,12.3h0l4.1-12.3Z"/>
      <path class="cls-1" d="M58.3,28.3h-3l-5.4-20.8h3l3.9,16.9h0l4.7-16.9h3.1l4.7,16.9h0l3.9-16.9h3.1l-5.5,20.8h-3l-4.8-17.2h0l-4.8,17.2Z"/>
      <path class="cls-1" d="M84.9,12.7c4.8,0,7,4.1,7,8s-2.2,8-7,8-7-4.1-7-8c0-3.9,2.2-8,7-8ZM84.9,26.5c3.7,0,4.4-3.8,4.4-5.8s-.8-5.8-4.4-5.8-4.4,3.8-4.4,5.8.8,5.8,4.4,5.8Z"/>
      <path class="cls-1" d="M97.7,28.3h-2.5v-15.1h2.4v2.5h0c1-1.8,2.3-3,4.3-3s.5,0,.7,0v2.6h-1c-2.4,0-3.9,1.9-3.9,4.1v8.8Z"/>
      <path class="cls-1" d="M118.2,28.3h-3.3l-4.7-7.6-2.1,1.9v5.7h-2.5V7.5h2.5v12.1l6.5-6.4h3.2l-5.8,5.6,6.1,9.5Z"/>
    </g>
  </g>
</svg>